:SAMPLES-PER-SECOND 30
:FULLY-SPECIFIED
:DEGREES
48
root  2.27722 39.5291 5.04376 -143.228 -83.8514 139.361
RightUpLeg  -6.6403 -5.02435 -18.1446
RightLeg  12.6799 -1.05648 -0.859921
RightFoot  5.14053 -2.28118 15.902
RightToes  -1.33073e-015 0 -3.6325e-017
Spine  13.0016 -0.91465 -1.68936
Spine1  2.23953 -0.682996 -3.77471
HEad  39.9264 10.0107 9.32346
LeftShoulder1  2.66077 -8.29805 -15.7782
LeftArm  3.51539 -8.23659 -57.8729
LeftForeArm  16.3875 -6.12277 -14.2653
LeftHand  -0.306073 2.49795 12.0208
RightShoulder  2.24588 5.22324 19.3121
RightArm  -11.357 -3.97486 43.2371
RightForeArm  13.6125 6.83707 12.4127
RightHand  -0.533908 -0.989075 -14.0333
LeftUpLeg  -1.39161 8.90891 4.34973
LeftLeg  13.2702 9.90597 2.82012
LeftFoot  -4.10105 0.849971 -13.0079
LeftToes  -4.0021e-011 8.38769e-011 -3.99229e-011
49
root  2.30401 39.5049 5.35053 -146.222 -83.4338 141.955
RightUpLeg  -7.63244 -5.61305 -19.0904
RightLeg  14.5232 0.768527 0.0171534
RightFoot  6.39304 -2.61245 16.9138
RightToes  -1.33073e-015 0 -3.6325e-017
Spine  13.1167 -0.740919 -2.06693
Spine1  2.2803 -0.45188 -4.45901
HEad  40.957 13.1767 10.1416
LeftShoulder1  2.58631 -8.18051 -15.3302
LeftArm  5.02454 -8.93795 -58.1375
LeftForeArm  15.9191 -7.50112 -13.8382
LeftHand  -0.259236 2.84659 11.4656
RightShoulder  2.28984 5.32026 19.5433
RightArm  -12.3739 -5.75209 44.8435
RightForeArm  23.6171 3.94559 12.7942
RightHand  -0.348388 -2.18704 -12.3702
LeftUpLeg  -1.36935 8.68662 3.77842
LeftLeg  14.1568 10.6503 3.27729
LeftFoot  -4.48554 0.795451 -12.7918
LeftToes  -4.0021e-011 8.38769e-011 -3.99229e-011
50
root  2.33556 39.5019 5.58727 -150.195 -83.2604 145.53
RightUpLeg  -8.61806 -7.0346 -19.6008
RightLeg  16.343 3.38833 0.926724
RightFoot  8.20944 -3.13019 18.3455
RightToes  -1.33073e-015 0 -3.6325e-017
Spine  13.3438 -0.745794 -2.34169
Spine1  2.13794 -0.432912 -5.0034
HEad  41.4563 15.3539 10.6653
LeftShoulder1  2.53552 -8.07773 -15.0654
LeftArm  9.88285 -8.77175 -57.9845
LeftForeArm  12.4925 -10.4905 -12.9094
LeftHand  -0.232899 2.98295 10.824
RightShoulder  2.31191 5.3414 19.7456
RightArm  -14.0407 -7.62719 46.9759
RightForeArm  31.4109 1.55971 12.6026
RightHand  -0.200715 -3.25939 -10.3099
LeftUpLeg  -1.17137 8.884 3.78825
LeftLeg  14.6777 10.6218 3.301
LeftFoot  -4.72957 0.760881 -12.6413
LeftToes  -4.0021e-011 8.38769e-011 -3.99229e-011
51
root  2.34538 39.4927 5.74462 -153.836 -83.2515 148.888
RightUpLeg  -9.38566 -8.1008 -19.9085
RightLeg  17.7774 5.65959 1.82934
RightFoot  10.1737 -3.76495 20.0076
RightToes  -1.33073e-015 0 -3.6325e-017
Spine  13.4086 -0.810874 -2.8538
Spine1  1.9375 -0.591168 -5.088
HEad  41.4443 16.8473 10.8106
LeftShoulder1  2.50725 -7.95399 -15.0541
LeftArm  16.6887 -8.03675 -57.5734
LeftForeArm  8.23798 -13.9037 -11.3504
LeftHand  -0.25638 2.77562 11.0252
RightShoulder  2.29439 5.21034 19.9531
RightArm  -15.5385 -9.50228 48.9837
RightForeArm  34.198 -0.28255 12.2218
RightHand  -0.125483 -3.81499 -8.18634
LeftUpLeg  -1.01457 9.19857 4.03352
LeftLeg  15.0918 10.4599 3.25098
LeftFoot  -5.16741 0.701244 -12.3922
LeftToes  -4.0021e-011 8.38769e-011 -3.99229e-011
52
root  2.31339 39.4825 5.82192 -155.024 -83.3724 149.919
RightUpLeg  -9.66418 -7.816 -20.2704
RightLeg  18.6459 7.29763 2.53873
RightFoot  10.3986 -4.06115 21.3209
RightToes  -1.33073e-015 0 -3.6325e-017
Spine  13.0787 -0.882572 -3.74783
Spine1  1.85166 -0.868547 -4.69588
HEad  41.2225 17.9493 10.6082
LeftShoulder1  2.47839 -7.81927 -15.06
LeftArm  23.4706 -6.99499 -57.1487
LeftForeArm  4.91635 -16.8427 -9.47116
LeftHand  -0.31539 2.3093 11.6708
RightShoulder  2.26156 5.01894 20.1762
RightArm  -16.7961 -11.5135 50.7204
RightForeArm  32.2552 -1.71107 11.8965
RightHand  -0.0951566 -4.06203 -6.87958
LeftUpLeg  -0.874261 9.18616 4.03166
LeftLeg  15.2479 10.545 3.44371
LeftFoot  -5.46852 0.663298 -12.2581
LeftToes  -4.0021e-011 8.38769e-011 -3.99229e-011
53
root  2.23659 39.4857 5.82685 -153.678 -83.598 148.382
RightUpLeg  -9.15506 -6.00654 -20.632
RightLeg  18.6798 7.93309 2.77937
RightFoot  7.51146 -3.54764 21.4259
RightToes  -1.33073e-015 0 -3.6325e-017
Spine  12.4477 -0.970045 -4.55424
Spine1  1.96266 -1.10175 -4.45672
HEad  41.2365 18.6306 10.3945
LeftShoulder1  2.44485 -7.69903 -14.9895
LeftArm  29.3366 -6.00921 -56.6541
LeftForeArm  3.25011 -19.0102 -7.78358
LeftHand  -0.364682 1.85482 11.8572
RightShoulder  2.26868 4.91357 20.6243
RightArm  -18.0428 -13.7386 52.2349
RightForeArm  28.8294 -2.79007 11.6484
RightHand  -0.0927436 -4.08372 -6.71653
LeftUpLeg  -0.440468 9.00953 3.86796
LeftLeg  14.9009 10.4802 3.57247
LeftFoot  -5.43691 0.666666 -12.2603
LeftToes  -4.0021e-011 8.38769e-011 -3.99229e-011
54
root  2.11445 39.4972 5.76084 -151.411 -83.7255 145.914
RightUpLeg  -7.82181 -3.59319 -20.632
RightLeg  17.1299 6.62091 2.12268
RightFoot  3.3014 -2.58633 20.0952
RightToes  -1.33073e-015 0 -3.6325e-017
Spine  11.6001 -1.03061 -4.85509
Spine1  2.17681 -1.10596 -4.87845
HEad  41.6298 18.9147 10.4756
LeftShoulder1  2.39604 -7.49378 -14.9496
LeftArm  34.2258 -5.26839 -55.9538
LeftForeArm  3.69663 -20.3988 -6.59728
LeftHand  -0.371131 1.58143 11.2195
RightShoulder  2.30782 4.87647 21.2537
RightArm  -18.8276 -15.888 53.5798
RightForeArm  27.435 -3.51363 11.5482
RightHand  -0.099365 -3.9077 -6.55719
LeftUpLeg  0.355018 9.10898 3.87805
LeftLeg  14.074 10.1215 3.26563
LeftFoot  -5.32937 0.673695 -12.187
LeftToes  -4.0021e-011 8.38769e-011 -3.99229e-011
55
root  1.95181 39.5135 5.62887 -148.423 -83.4696 142.985
RightUpLeg  -6.07142 -1.52377 -20.2164
RightLeg  13.7327 3.19812 0.615163
RightFoot  1.12594 -1.97703 18.0708
RightToes  -1.33073e-015 0 -3.6325e-017
Spine  10.4163 -0.999883 -4.91441
Spine1  2.30437 -0.862284 -5.64646
HEad  42.1453 19.2222 10.7292
LeftShoulder1  2.31288 -7.10928 -14.9555
LeftArm  38.2278 -4.41597 -55.0866
LeftForeArm  5.44804 -21.3507 -5.76594
LeftHand  -0.332823 1.61858 10.126
RightShoulder  2.32413 4.81305 21.6882
RightArm  -18.6248 -17.5416 54.6914
RightForeArm  29.8925 -3.86502 11.76
RightHand  -0.0735172 -4.05329 -4.46278
LeftUpLeg  1.27835 9.39246 3.87678
LeftLeg  12.7246 9.99995 2.62407
LeftFoot  -5.14324 0.687511 -12.0957
LeftToes  -4.0021e-011 8.38769e-011 -3.99229e-011
56
root  1.7806 39.5398 5.45172 -143.85 -82.8362 138.762
RightUpLeg  -4.52138 -1.11837 -19.5931
RightLeg  9.83543 0.373918 -1.28261
RightFoot  1.80382 -1.86526 16.2124
RightToes  -1.33073e-015 0 -3.6325e-017
Spine  9.02633 -0.937944 -5.01843
Spine1  2.21471 -0.524369 -6.36661
HEad  42.5728 19.9745 10.8388
LeftShoulder1  2.23359 -6.71587 -15.0251
LeftArm  40.8406 -2.94231 -53.9657
LeftForeArm  6.98333 -22.3593 -5.0442
LeftHand  -0.268141 2.02062 9.03621
RightShoulder  2.31638 4.74722 21.8265
RightArm  -17.3781 -18.4384 55.3473
RightForeArm  35.4939 -3.78351 12.255
RightHand  -0.0277055 -4.59802 0.0174029
LeftUpLeg  2.14256 9.3681 3.43363
LeftLeg  10.8774 10.4351 2.02212
LeftFoot  -4.59812 0.749367 -12.2143
LeftToes  -4.0021e-011 8.38769e-011 -3.99229e-011
